<?xml version="1.0" standalone="no"?>
<!DOCTYPE svg PUBLIC "-//W3C//DTD SVG 20010904//EN"
 "http://www.w3.org/TR/2001/REC-SVG-20010904/DTD/svg10.dtd">
<svg version="1.0" xmlns="http://www.w3.org/2000/svg"
 width="512.000000pt" height="512.000000pt" viewBox="0 0 512.000000 512.000000"
 preserveAspectRatio="xMidYMid meet">
<metadata>
Created by potrace 1.11, written by Peter Selinger 2001-2013
</metadata>
<g transform="translate(0.000000,512.000000) scale(0.100000,-0.100000)"
fill="#000000" stroke="none">
<path d="M0 2560 l0 -2560 2560 0 2560 0 0 2560 0 2560 -2560 0 -2560 0 0
-2560z m2997 2045 c372 -49 741 -206 1033 -442 139 -112 367 -364 420 -464 9
-15 -44 -52 -399 -283 -225 -146 -416 -268 -423 -271 -8 -3 -21 8 -33 27 -56
96 -253 267 -382 332 -369 186 -817 141 -1136 -113 -655 -521 -481 -1555 307
-1830 159 -56 220 -61 754 -61 l482 0 0 -500 0 -500 -519 0 c-571 0 -657 6
-872 60 -721 180 -1300 749 -1488 1461 -47 180 -62 281 -68 474 -14 437 99
838 334 1195 330 500 859 835 1443 914 143 19 402 19 547 1z"/>
</g>
</svg>
